<svg width="64" height="64" viewBox="0 0 64 64" fill="none" xmlns="http://www.w3.org/2000/svg">
  <defs>
    <linearGradient id="heroQuickstartGradient" x1="12" y1="10" x2="52" y2="54" gradientUnits="userSpaceOnUse">
      <stop offset="0" stop-color="#7dd3fc" />
      <stop offset="1" stop-color="#22d3ee" />
    </linearGradient>
  </defs>
  <rect x="6" y="6" width="52" height="52" rx="18" fill="url(#heroQuickstartGradient)" />
  <path d="M32.6 10.8c.9-.3 1.9.1 2.2 1l.1.3c.1.4.1.8-.1 1.2L30 24.2h9.8c1 0 1.6 1.1 1 1.9l-.2.2L23 46.4c-.7.8-2.1.3-2-.8l.1-.4 3.3-13h-9.1c-1 0-1.7-1-1.2-1.9l.1-.2L27.9 12c.3-.4.6-.6 1-.8l3.7-1.2z" fill="#061528" />
  <path d="M18.8 42.3l-3 8.7c-.2.4-.7.7-1.1.6l-.3-.1c-1-.4-1.6-1.4-1.6-2.5.1-3.7 2.1-7.5 5.7-11.3l.3-.3c.7-.6 1.8.1 1.5 1l-1.5 4.6z" fill="#0f172a" opacity="0.85" />
</svg>
