<svg width="64" height="64" viewBox="0 0 64 64" fill="none" xmlns="http://www.w3.org/2000/svg">
  <defs>
    <linearGradient id="heroDemoGradient" x1="14" y1="12" x2="48" y2="52" gradientUnits="userSpaceOnUse">
      <stop offset="0" stop-color="#a5f3fc" />
      <stop offset="1" stop-color="#5eead4" />
    </linearGradient>
  </defs>
  <rect x="6" y="6" width="52" height="52" rx="18" fill="url(#heroDemoGradient)" />
  <path d="M19.6 13.8c-.8-.7-2 .1-1.8 1.1l5.2 27.4c.2 1.1 1.5 1.5 2.3.8l6.2-6 6.5 3.3c1 .5 2-.5 1.6-1.5l-9.8-24c-.4-1-1.7-1.3-2.5-.6l-4.6 4.3-3.1-4.8z" fill="#05203a" />
  <path d="M39.6 22c4.4 0 8 3.6 8 8 0 1.3-.3 2.6-.9 3.8-.4.8-1.5 1-2.1.3l-.1-.2-2.3-3.2-3.2-2.3c-.7-.5-.6-1.6.2-2.1 1.1-.6 2.3-.9 3.4-.9z" fill="#0f172a" opacity="0.9" />
</svg>
